<svg width="1480" height="122" viewBox="0 0 1480 122" fill="none" xmlns="http://www.w3.org/2000/svg">
<g clip-path="url(#clip0_59_143)">
<rect width="1480" height="122" fill="white"/>
<rect width="1480" height="122" fill="white"/>
<path d="M305.999 -51.4002C350.689 16.7768 454.454 108.705 511.999 -69" stroke="#DD9A42"/>
<path d="M1342.85 135.052C1202.32 5.18864 963.286 -141.918 1131.43 308.566" stroke="#DD9A42"/>
<path d="M542.999 138.859C489.712 109.732 365.31 70.1815 293.999 145" stroke="#AF2F4D"/>
<path d="M1262.74 132.95C1175.74 51.2193 928.453 -9.01528 1042.44 298.635" stroke="#AF2F4D"/>
<path d="M102.102 -24.937C166.605 42.5733 332.199 284 280.199 -40.9999" stroke="#DD9A42"/>
<path d="M83.006 -13.4529C81.9215 -14.9519 255.118 171.972 255.118 171.972" stroke="#DD9A42"/>
<path d="M216.885 88.0804C222.694 86.4302 228.014 83.4007 232.388 79.2519C236.762 75.1032 240.06 69.9592 241.997 64.262C246.094 51.3388 244.264 41.7096 241.403 30.0829C251.529 13.0309 257.651 -18.712 221.387 -42.4179C221.459 -42.9825 221.496 -43.551 221.496 -44.1201C221.497 -47.0666 220.556 -49.9368 218.809 -52.3152C217.062 -54.6935 214.6 -56.4565 211.78 -57.3486C208.959 -58.2408 205.927 -58.2159 203.122 -57.2775C200.317 -56.3391 197.884 -54.5359 196.177 -52.1292C188.047 -53.8361 179.717 -54.3941 171.431 -53.7867C137.013 -51.972 104.084 -26.7117 105.228 8.44267C106.019 32.8121 120.848 58.2036 147.143 73.6215C157.596 79.7525 188.322 95.4259 216.885 88.0804ZM193.636 -43.5129C193.757 -40.7421 194.709 -38.0708 196.37 -35.8442C198.031 -33.6175 200.324 -31.9375 202.953 -31.0211C205.582 -30.1047 208.426 -29.9939 211.119 -30.7031C213.812 -31.4123 216.23 -32.9089 218.06 -34.9997C218.114 -34.9739 218.164 -34.9529 218.218 -34.9247C255.579 -12.1825 237.796 19.9989 237.796 19.9989C229.161 0.308447 215.444 -16.755 198.04 -29.4573C190.062 -35.3093 192.007 -43.0299 193.636 -43.5129ZM181.862 -21.8585C214.811 -2.7714 226.132 19.373 231.548 29.8133C231.548 29.8133 224.249 41.1258 202.933 49.0551C196.756 51.5385 190.045 52.4113 183.435 51.5907C176.825 50.7701 170.535 48.2834 165.16 44.366C153.542 36.1966 144.747 24.6495 139.98 11.3077C132.798 -8.92823 135.652 -22.8667 140.178 -28.6648C140.18 -28.6484 154.102 -37.9399 181.867 -21.8492L181.862 -21.8585ZM150.725 58.1942C144.68 57.6011 125.329 49.1372 116.11 23.898C110.713 9.12723 113.99 -14.7357 129.558 -25.3097C129.558 -25.3097 114.994 3.3197 147.756 44.6286C150.231 47.5663 152.76 51.2286 154.095 53.1863C155.43 55.144 155.576 58.6678 150.725 58.1942ZM208.264 78.2637C206.716 77.3393 205.43 76.0372 204.527 74.4804C203.625 72.9235 203.136 71.1633 203.107 69.366C203.077 67.5686 203.509 65.7936 204.36 64.2085C205.212 62.6233 206.455 61.2804 207.972 60.3067C229.86 45.1467 235.137 38.3898 235.137 38.3898C240.212 52.2626 239.234 64.2198 232.097 72.4305C226.415 78.9671 213.739 81.3585 208.264 78.2637Z" fill="url(#paint0_linear_59_143)"/>
<path d="M210.565 61.8096C209.176 61.8096 207.818 62.2229 206.662 62.9973C205.507 63.7717 204.607 64.8724 204.075 66.1602C203.544 67.448 203.405 68.865 203.676 70.2321C203.947 71.5992 204.616 72.855 205.598 73.8406C206.58 74.8262 207.832 75.4974 209.195 75.7694C210.557 76.0413 211.97 75.9017 213.253 75.3683C214.537 74.8349 215.634 73.9315 216.406 72.7726C217.177 71.6136 217.589 70.251 217.589 68.8571C217.589 66.9882 216.848 65.196 215.531 63.8745C214.214 62.5529 212.428 61.8102 210.565 61.8096Z" fill="url(#paint1_linear_59_143)"/>
<path d="M1418.29 199.329C1429.38 196.174 1439.54 190.381 1447.9 182.448C1456.25 174.515 1462.54 164.679 1466.24 153.785C1474.07 129.073 1470.57 110.661 1465.11 88.4289C1484.45 55.8227 1496.14 -4.87505 1426.89 -50.2045C1427.02 -51.2841 1427.09 -52.3712 1427.09 -53.4594C1427.1 -59.0935 1425.3 -64.5819 1421.96 -69.1297C1418.63 -73.6775 1413.92 -77.0485 1408.54 -78.7545C1403.15 -80.4604 1397.36 -80.4129 1392 -78.6185C1386.65 -76.8241 1382 -73.3761 1378.74 -68.774C1363.22 -72.038 1347.31 -73.1049 1331.48 -71.9435C1265.75 -68.4735 1202.87 -20.1717 1205.05 47.0491C1206.57 93.6474 1234.88 142.2 1285.1 171.682C1305.06 183.405 1363.74 213.375 1418.29 199.329ZM1373.89 -52.2984C1374.12 -47.0001 1375.94 -41.8922 1379.11 -37.6344C1382.28 -33.3766 1386.66 -30.1642 1391.68 -28.4119C1396.7 -26.6597 1402.13 -26.4478 1407.28 -27.8039C1412.42 -29.1601 1417.04 -32.0218 1420.53 -36.0197C1420.64 -35.9704 1420.73 -35.9301 1420.83 -35.8763C1492.18 7.61054 1458.22 69.1466 1458.22 69.1466C1441.73 31.4952 1415.54 -1.13284 1382.3 -25.4217C1367.06 -36.6117 1370.78 -51.3748 1373.89 -52.2984ZM1351.4 -10.8916C1414.33 25.606 1435.95 67.9497 1446.29 87.9133C1446.29 87.9133 1432.35 109.545 1391.64 124.707C1379.85 129.455 1367.03 131.124 1354.41 129.555C1341.78 127.986 1329.77 123.231 1319.51 115.74C1297.32 100.119 1280.52 78.0393 1271.42 52.5275C1257.7 13.8332 1263.16 -12.8194 1271.8 -23.9063C1271.8 -23.8749 1298.39 -41.6419 1351.41 -10.8738L1351.4 -10.8916ZM1291.94 142.182C1280.4 141.048 1243.44 124.864 1225.83 76.6022C1215.53 48.3581 1221.79 2.7284 1251.52 -17.4908C1251.52 -17.4908 1223.7 37.2532 1286.27 116.242C1291 121.86 1295.83 128.863 1298.38 132.606C1300.93 136.35 1301.2 143.088 1291.94 142.182ZM1401.82 180.558C1398.87 178.791 1396.41 176.301 1394.69 173.324C1392.96 170.347 1392.03 166.981 1391.97 163.544C1391.92 160.108 1392.74 156.713 1394.37 153.682C1395.99 150.651 1398.37 148.084 1401.27 146.222C1443.07 117.233 1453.14 104.313 1453.14 104.313C1462.84 130.84 1460.97 153.704 1447.34 169.404C1436.49 181.903 1412.28 186.476 1401.82 180.558Z" fill="url(#paint2_linear_59_143)"/>
</g>
<defs>
<linearGradient id="paint0_linear_59_143" x1="253.087" y1="-54.596" x2="122.3" y2="72.8001" gradientUnits="userSpaceOnUse">
<stop offset="0.145" stop-color="#76187E"/>
<stop offset="0.243" stop-color="#871A70"/>
<stop offset="0.437" stop-color="#B5204D"/>
<stop offset="0.629" stop-color="#E82727"/>
<stop offset="0.701" stop-color="#EE4B28"/>
<stop offset="0.784" stop-color="#F56E29"/>
<stop offset="0.862" stop-color="#FA882A"/>
<stop offset="0.933" stop-color="#FD972A"/>
<stop offset="0.989" stop-color="#FE9D2B"/>
</linearGradient>
<linearGradient id="paint1_linear_59_143" x1="292.68" y1="-16.1934" x2="164.979" y2="115.204" gradientUnits="userSpaceOnUse">
<stop offset="0.145" stop-color="#76187E"/>
<stop offset="0.243" stop-color="#871A70"/>
<stop offset="0.437" stop-color="#B5204D"/>
<stop offset="0.629" stop-color="#E82727"/>
<stop offset="0.701" stop-color="#EE4B28"/>
<stop offset="0.784" stop-color="#F56E29"/>
<stop offset="0.862" stop-color="#FA882A"/>
<stop offset="0.933" stop-color="#FD972A"/>
<stop offset="0.989" stop-color="#FE9D2B"/>
</linearGradient>
<linearGradient id="paint2_linear_59_143" x1="1487.42" y1="-73.491" x2="1237.35" y2="169.792" gradientUnits="userSpaceOnUse">
<stop offset="0.145" stop-color="#76187E"/>
<stop offset="0.243" stop-color="#871A70"/>
<stop offset="0.437" stop-color="#B5204D"/>
<stop offset="0.629" stop-color="#E82727"/>
<stop offset="0.701" stop-color="#EE4B28"/>
<stop offset="0.784" stop-color="#F56E29"/>
<stop offset="0.862" stop-color="#FA882A"/>
<stop offset="0.933" stop-color="#FD972A"/>
<stop offset="0.989" stop-color="#FE9D2B"/>
</linearGradient>
<clipPath id="clip0_59_143">
<rect width="1480" height="122" fill="white"/>
</clipPath>
</defs>
</svg>
