<?xml version="1.0" encoding="UTF-8"?>
<svg xmlns="http://www.w3.org/2000/svg" xmlns:xlink="http://www.w3.org/1999/xlink" width="450px" height="50px" viewBox="0 0 450 50" version="1.1">
<defs>
<linearGradient id="linear0" gradientUnits="userSpaceOnUse" x1="253.087" y1="-54.596" x2="122.3" y2="72.8001" gradientTransform="matrix(0.304054,0,0,0.409836,0,0)">
<stop offset="0.145" style="stop-color:rgb(46.27451%,9.411765%,49.411765%);stop-opacity:1;"/>
<stop offset="0.243" style="stop-color:rgb(52.941176%,10.196078%,43.921569%);stop-opacity:1;"/>
<stop offset="0.437" style="stop-color:rgb(70.980392%,12.54902%,30.196078%);stop-opacity:1;"/>
<stop offset="0.629" style="stop-color:rgb(90.980392%,15.294118%,15.294118%);stop-opacity:1;"/>
<stop offset="0.701" style="stop-color:rgb(93.333333%,29.411765%,15.686275%);stop-opacity:1;"/>
<stop offset="0.784" style="stop-color:rgb(96.078431%,43.137255%,16.078431%);stop-opacity:1;"/>
<stop offset="0.862" style="stop-color:rgb(98.039216%,53.333333%,16.470588%);stop-opacity:1;"/>
<stop offset="0.933" style="stop-color:rgb(99.215686%,59.215686%,16.470588%);stop-opacity:1;"/>
<stop offset="0.989" style="stop-color:rgb(99.607843%,61.568627%,16.862745%);stop-opacity:1;"/>
</linearGradient>
<linearGradient id="linear1" gradientUnits="userSpaceOnUse" x1="292.68" y1="-16.1934" x2="164.979" y2="115.204" gradientTransform="matrix(0.304054,0,0,0.409836,0,0)">
<stop offset="0.145" style="stop-color:rgb(46.27451%,9.411765%,49.411765%);stop-opacity:1;"/>
<stop offset="0.243" style="stop-color:rgb(52.941176%,10.196078%,43.921569%);stop-opacity:1;"/>
<stop offset="0.437" style="stop-color:rgb(70.980392%,12.54902%,30.196078%);stop-opacity:1;"/>
<stop offset="0.629" style="stop-color:rgb(90.980392%,15.294118%,15.294118%);stop-opacity:1;"/>
<stop offset="0.701" style="stop-color:rgb(93.333333%,29.411765%,15.686275%);stop-opacity:1;"/>
<stop offset="0.784" style="stop-color:rgb(96.078431%,43.137255%,16.078431%);stop-opacity:1;"/>
<stop offset="0.862" style="stop-color:rgb(98.039216%,53.333333%,16.470588%);stop-opacity:1;"/>
<stop offset="0.933" style="stop-color:rgb(99.215686%,59.215686%,16.470588%);stop-opacity:1;"/>
<stop offset="0.989" style="stop-color:rgb(99.607843%,61.568627%,16.862745%);stop-opacity:1;"/>
</linearGradient>
<linearGradient id="linear2" gradientUnits="userSpaceOnUse" x1="1487.42" y1="-73.491" x2="1237.35" y2="169.792" gradientTransform="matrix(0.304054,0,0,0.409836,0,0)">
<stop offset="0.145" style="stop-color:rgb(46.27451%,9.411765%,49.411765%);stop-opacity:1;"/>
<stop offset="0.243" style="stop-color:rgb(52.941176%,10.196078%,43.921569%);stop-opacity:1;"/>
<stop offset="0.437" style="stop-color:rgb(70.980392%,12.54902%,30.196078%);stop-opacity:1;"/>
<stop offset="0.629" style="stop-color:rgb(90.980392%,15.294118%,15.294118%);stop-opacity:1;"/>
<stop offset="0.701" style="stop-color:rgb(93.333333%,29.411765%,15.686275%);stop-opacity:1;"/>
<stop offset="0.784" style="stop-color:rgb(96.078431%,43.137255%,16.078431%);stop-opacity:1;"/>
<stop offset="0.862" style="stop-color:rgb(98.039216%,53.333333%,16.470588%);stop-opacity:1;"/>
<stop offset="0.933" style="stop-color:rgb(99.215686%,59.215686%,16.470588%);stop-opacity:1;"/>
<stop offset="0.989" style="stop-color:rgb(99.607843%,61.568627%,16.862745%);stop-opacity:1;"/>
</linearGradient>
</defs>
<g id="surface1">
<rect x="0" y="0" width="450" height="50" style="fill:rgb(100%,100%,100%);fill-opacity:1;stroke:none;"/>
<rect x="0" y="0" width="450" height="50" style="fill:rgb(100%,100%,100%);fill-opacity:1;stroke:none;"/>
<path style="fill:none;stroke-width:1;stroke-linecap:butt;stroke-linejoin:miter;stroke:rgb(86.666667%,60.392157%,25.882353%);stroke-opacity:1;stroke-miterlimit:4;" d="M 305.995139 -51.402031 C 350.690625 16.775 454.457639 108.703906 512.000347 -68.996719 " transform="matrix(0.304054,0,0,0.409836,0,0)"/>
<path style="fill:none;stroke-width:1;stroke-linecap:butt;stroke-linejoin:miter;stroke:rgb(86.666667%,60.392157%,25.882353%);stroke-opacity:1;stroke-miterlimit:4;" d="M 1342.855903 135.048281 C 1202.320139 5.185 963.284722 -141.920312 1131.429167 308.564687 " transform="matrix(0.304054,0,0,0.409836,0,0)"/>
<path style="fill:none;stroke-width:1;stroke-linecap:butt;stroke-linejoin:miter;stroke:rgb(68.627451%,18.431373%,30.196078%);stroke-opacity:1;stroke-miterlimit:4;" d="M 543.000694 138.860781 C 489.710417 109.733281 365.310764 70.178594 293.995833 144.998906 " transform="matrix(0.304054,0,0,0.409836,0,0)"/>
<path style="fill:none;stroke-width:1;stroke-linecap:butt;stroke-linejoin:miter;stroke:rgb(68.627451%,18.431373%,30.196078%);stroke-opacity:1;stroke-miterlimit:4;" d="M 1262.740625 132.951406 C 1175.739236 51.220937 928.455903 -9.016562 1042.436458 298.633125 " transform="matrix(0.304054,0,0,0.409836,0,0)"/>
<path style="fill:none;stroke-width:1;stroke-linecap:butt;stroke-linejoin:miter;stroke:rgb(86.666667%,60.392157%,25.882353%);stroke-opacity:1;stroke-miterlimit:4;" d="M 102.096875 -24.93375 C 166.602778 42.576094 332.203472 284.002656 280.197917 -41.003437 " transform="matrix(0.304054,0,0,0.409836,0,0)"/>
<path style="fill:none;stroke-width:1;stroke-linecap:butt;stroke-linejoin:miter;stroke:rgb(86.666667%,60.392157%,25.882353%);stroke-opacity:1;stroke-miterlimit:4;" d="M 83.005903 -13.448594 C 81.926736 -14.954531 255.120139 171.972344 255.120139 171.972344 " transform="matrix(0.304054,0,0,0.409836,0,0)"/>
<path style=" stroke:none;fill-rule:nonzero;fill:url(#linear0);" d="M 65.945312 36.097656 C 67.710938 35.421875 69.328125 34.179688 70.660156 32.480469 C 71.988281 30.78125 72.992188 28.671875 73.582031 26.335938 C 74.824219 21.039062 74.269531 17.09375 73.398438 12.328125 C 76.476562 5.339844 78.339844 -7.667969 67.3125 -17.382812 C 67.335938 -17.617188 67.347656 -17.847656 67.347656 -18.082031 C 67.347656 -19.289062 67.0625 -20.464844 66.53125 -21.441406 C 66 -22.414062 65.25 -23.136719 64.390625 -23.503906 C 63.535156 -23.871094 62.613281 -23.859375 61.761719 -23.472656 C 60.90625 -23.089844 60.167969 -22.351562 59.648438 -21.363281 C 57.175781 -22.0625 54.644531 -22.292969 52.125 -22.042969 C 41.660156 -21.300781 31.648438 -10.949219 31.996094 3.460938 C 32.234375 13.449219 36.746094 23.855469 44.738281 30.171875 C 47.917969 32.683594 57.261719 39.109375 65.945312 36.097656 Z M 58.875 -17.832031 C 58.914062 -16.699219 59.203125 -15.601562 59.707031 -14.691406 C 60.210938 -13.777344 60.910156 -13.089844 61.707031 -12.714844 C 62.507812 -12.339844 63.371094 -12.292969 64.191406 -12.582031 C 65.011719 -12.875 65.746094 -13.488281 66.300781 -14.34375 C 66.320312 -14.332031 66.332031 -14.324219 66.351562 -14.3125 C 77.710938 -4.992188 72.304688 8.195312 72.304688 8.195312 C 69.675781 0.125 65.507812 -6.867188 60.214844 -12.074219 C 57.789062 -14.472656 58.378906 -17.636719 58.875 -17.832031 Z M 55.296875 -8.957031 C 65.3125 -1.136719 68.757812 7.941406 70.402344 12.21875 C 70.402344 12.21875 68.183594 16.855469 61.703125 20.105469 C 59.824219 21.121094 57.785156 21.480469 55.773438 21.144531 C 53.765625 20.808594 51.851562 19.789062 50.21875 18.183594 C 46.683594 14.835938 44.011719 10.101562 42.5625 4.632812 C 40.378906 -3.660156 41.246094 -9.371094 42.621094 -11.746094 C 42.621094 -11.742188 46.855469 -15.550781 55.296875 -8.953125 Z M 45.828125 23.851562 C 43.992188 23.605469 38.105469 20.136719 35.304688 9.792969 C 33.664062 3.742188 34.660156 -6.039062 39.394531 -10.371094 C 39.394531 -10.371094 34.964844 1.359375 44.925781 18.289062 C 45.679688 19.496094 46.449219 20.996094 46.851562 21.796875 C 47.257812 22.601562 47.304688 24.042969 45.828125 23.851562 Z M 63.324219 32.074219 C 62.851562 31.695312 62.460938 31.164062 62.1875 30.523438 C 61.914062 29.886719 61.765625 29.164062 61.753906 28.429688 C 61.746094 27.691406 61.878906 26.964844 62.136719 26.316406 C 62.394531 25.664062 62.773438 25.113281 63.234375 24.714844 C 69.890625 18.503906 71.496094 15.734375 71.496094 15.734375 C 73.039062 21.417969 72.738281 26.320312 70.570312 29.683594 C 68.84375 32.363281 64.988281 33.34375 63.324219 32.074219 Z M 63.324219 32.074219 "/>
<path style=" stroke:none;fill-rule:nonzero;fill:url(#linear1);" d="M 64.023438 25.332031 C 63.601562 25.332031 63.1875 25.5 62.835938 25.820312 C 62.484375 26.136719 62.210938 26.585938 62.050781 27.113281 C 61.886719 27.644531 61.847656 28.222656 61.929688 28.785156 C 62.011719 29.34375 62.214844 29.859375 62.511719 30.261719 C 62.8125 30.667969 63.191406 30.941406 63.605469 31.054688 C 64.019531 31.164062 64.449219 31.105469 64.839844 30.886719 C 65.230469 30.671875 65.5625 30.300781 65.800781 29.824219 C 66.035156 29.351562 66.160156 28.792969 66.160156 28.21875 C 66.160156 27.453125 65.933594 26.71875 65.53125 26.179688 C 65.132812 25.636719 64.589844 25.332031 64.023438 25.332031 Z M 64.023438 25.332031 "/>
<path style=" stroke:none;fill-rule:nonzero;fill:url(#linear2);" d="M 431.238281 81.691406 C 434.609375 80.398438 437.699219 78.023438 440.238281 74.773438 C 442.777344 71.523438 444.691406 67.492188 445.816406 63.027344 C 448.195312 52.898438 447.132812 45.351562 445.472656 36.242188 C 451.351562 22.878906 454.90625 -1.996094 433.851562 -20.574219 C 433.890625 -21.019531 433.914062 -21.464844 433.914062 -21.910156 C 433.914062 -24.21875 433.367188 -26.46875 432.351562 -28.332031 C 431.339844 -30.195312 429.90625 -31.578125 428.273438 -32.277344 C 426.632812 -32.976562 424.871094 -32.957031 423.242188 -32.21875 C 421.617188 -31.484375 420.203125 -30.070312 419.210938 -28.1875 C 414.492188 -29.523438 409.65625 -29.960938 404.84375 -29.484375 C 384.855469 -28.0625 365.738281 -8.265625 366.398438 19.28125 C 366.863281 38.378906 375.46875 58.277344 390.738281 70.363281 C 396.808594 75.164062 414.652344 87.449219 431.238281 81.691406 Z M 417.738281 -21.433594 C 417.808594 -19.261719 418.359375 -17.167969 419.324219 -15.425781 C 420.289062 -13.679688 421.621094 -12.363281 423.144531 -11.644531 C 424.671875 -10.925781 426.324219 -10.839844 427.890625 -11.394531 C 429.453125 -11.949219 430.855469 -13.125 431.917969 -14.761719 C 431.953125 -14.742188 431.980469 -14.726562 432.007812 -14.703125 C 453.703125 3.117188 443.378906 28.339844 443.378906 28.339844 C 438.363281 12.90625 430.402344 -0.464844 420.292969 -10.417969 C 415.660156 -15.003906 416.792969 -21.054688 417.738281 -21.433594 Z M 410.898438 -4.464844 C 430.03125 10.496094 436.605469 27.847656 439.75 36.03125 C 439.75 36.03125 435.511719 44.894531 423.132812 51.109375 C 419.550781 53.054688 415.652344 53.738281 411.8125 53.097656 C 407.972656 52.453125 404.320312 50.503906 401.203125 47.433594 C 394.457031 41.03125 389.347656 31.984375 386.582031 21.527344 C 382.410156 5.667969 384.070312 -5.253906 386.695312 -9.796875 C 386.695312 -9.785156 394.78125 -17.066406 410.902344 -4.457031 Z M 392.820312 58.269531 C 389.3125 57.804688 378.074219 51.171875 372.71875 31.394531 C 369.585938 19.820312 371.488281 1.117188 380.53125 -7.167969 C 380.53125 -7.167969 372.070312 15.269531 391.09375 47.640625 C 392.535156 49.941406 394.003906 52.8125 394.777344 54.347656 C 395.554688 55.882812 395.636719 58.644531 392.820312 58.269531 Z M 426.230469 74 C 425.332031 73.273438 424.585938 72.253906 424.0625 71.035156 C 423.535156 69.8125 423.253906 68.433594 423.234375 67.027344 C 423.21875 65.617188 423.46875 64.226562 423.964844 62.984375 C 424.457031 61.742188 425.179688 60.691406 426.0625 59.925781 C 438.769531 48.046875 441.832031 42.75 441.832031 42.75 C 444.78125 53.621094 444.214844 62.992188 440.070312 69.429688 C 436.769531 74.550781 429.410156 76.425781 426.230469 74 Z M 426.230469 74 "/>
</g>
</svg>
