<svg width="42" height="41" viewBox="0 0 42 41" fill="none" xmlns="http://www.w3.org/2000/svg">
<path d="M41.4552 9.20055C40.987 7.54652 40.1272 6.03176 38.9499 4.78639C37.7725 3.54102 36.3128 2.60227 34.696 2.05075C31.0286 0.884152 28.296 1.4051 24.9965 2.21971C20.1574 -0.663271 11.1493 -2.40646 4.42194 7.91862C4.26173 7.89817 4.10039 7.88786 3.93889 7.88778C3.10274 7.88749 2.28819 8.15544 1.61326 8.6528C0.938317 9.15016 0.438033 9.85112 0.184851 10.6541C-0.0683317 11.4572 -0.0612728 12.3206 0.205034 13.1193C0.471341 13.918 0.983052 14.6105 1.66605 15.0966C1.18163 17.4113 1.0233 19.7832 1.19567 22.1424C1.71065 31.9419 8.87911 41.3176 18.8554 40.9917C25.771 40.7665 32.9767 36.5446 37.352 29.0576C39.0919 26.0814 43.5398 17.3332 41.4552 9.20055ZM4.1112 15.82C4.89752 15.7856 5.65557 15.5145 6.28747 15.0416C6.91937 14.5688 7.39612 13.916 7.65618 13.1674C7.91624 12.4188 7.94767 11.6089 7.74641 10.8422C7.54515 10.0754 7.12044 9.38708 6.52711 8.86598C6.53443 8.85056 6.5404 8.83648 6.54839 8.82106C13.0023 -1.81646 22.1348 3.24686 22.1348 3.24686C16.547 5.70543 11.7047 9.61086 8.09996 14.5662C6.43925 16.8378 4.24826 16.2839 4.1112 15.82ZM10.2564 19.1723C15.673 9.79121 21.9572 6.56765 24.92 5.02559C24.92 5.02559 28.1303 7.10401 30.3805 13.173C31.0853 14.9316 31.3329 16.8424 31.1001 18.7244C30.8672 20.6065 30.1615 22.3975 29.0498 23.9279C26.7315 27.2356 23.4546 29.7398 19.6684 31.0971C13.9258 33.142 9.97027 32.3294 8.32486 31.0408C8.32951 31.0401 5.69273 27.0763 10.259 19.1709L10.2564 19.1723ZM32.974 28.0378C32.8057 29.7589 30.4038 35.2687 23.2413 37.8935C19.0496 39.4302 12.2777 38.497 9.27699 34.0646C9.27699 34.0646 17.4015 38.2113 29.1243 28.8832C29.958 28.1786 30.9973 27.4585 31.5529 27.0784C32.1084 26.6982 33.1084 26.6566 32.974 28.0378ZM38.6694 11.6551C38.4071 12.096 38.0376 12.4622 37.5958 12.7191C37.154 12.9761 36.6544 13.1153 36.1444 13.1236C35.6343 13.1319 35.1306 13.0091 34.6808 12.7667C34.2309 12.5243 33.8499 12.1703 33.5735 11.7382C29.2714 5.5063 27.3539 4.0038 27.3539 4.0038C31.2907 2.55896 34.684 2.8372 37.014 4.86937C38.869 6.48719 39.5477 10.0963 38.6694 11.6551Z" fill="url(#paint0_linear_1_645)"/>
<path d="M34 11C34 11.3956 34.1173 11.7822 34.3371 12.1111C34.5568 12.44 34.8692 12.6964 35.2346 12.8478C35.6001 12.9991 36.0022 13.0387 36.3902 12.9616C36.7781 12.8844 37.1345 12.6939 37.4142 12.4142C37.6939 12.1345 37.8844 11.7781 37.9616 11.3902C38.0387 11.0022 37.9991 10.6001 37.8478 10.2346C37.6964 9.86918 37.44 9.55683 37.1111 9.33706C36.7822 9.1173 36.3955 9 36 9C35.4696 9.00018 34.961 9.21095 34.586 9.58599C34.211 9.96102 34.0002 10.4696 34 11Z" fill="url(#paint1_linear_1_645)"/>
<path d="M23.5 18C23.9945 18 24.4778 17.8534 24.8889 17.5787C25.3 17.304 25.6205 16.9135 25.8097 16.4567C25.9989 15.9999 26.0484 15.4972 25.952 15.0123C25.8555 14.5273 25.6174 14.0819 25.2678 13.7322C24.9181 13.3826 24.4727 13.1445 23.9877 13.048C23.5028 12.9516 23.0001 13.0011 22.5433 13.1903C22.0865 13.3795 21.696 13.7 21.4213 14.1111C21.1466 14.5222 21 15.0055 21 15.5C21 16.163 21.2634 16.7989 21.7322 17.2678C22.2011 17.7366 22.837 18 23.5 18Z" fill="url(#paint2_linear_1_645)"/>
<defs>
<linearGradient id="paint0_linear_1_645" x1="0.966" y1="-1.107" x2="37.2415" y2="36.0112" gradientUnits="userSpaceOnUse">
<stop offset="0.145" stop-color="#76187E"/>
<stop offset="0.243" stop-color="#871A70"/>
<stop offset="0.437" stop-color="#B5204D"/>
<stop offset="0.629" stop-color="#E82727"/>
<stop offset="0.701" stop-color="#EE4B28"/>
<stop offset="0.784" stop-color="#F56E29"/>
<stop offset="0.862" stop-color="#FA882A"/>
<stop offset="0.933" stop-color="#FD972A"/>
<stop offset="0.989" stop-color="#FE9D2B"/>
</linearGradient>
<linearGradient id="paint1_linear_1_645" x1="11.864" y1="-12.38" x2="49.272" y2="23.856" gradientUnits="userSpaceOnUse">
<stop offset="0.145" stop-color="#76187E"/>
<stop offset="0.243" stop-color="#871A70"/>
<stop offset="0.437" stop-color="#B5204D"/>
<stop offset="0.629" stop-color="#E82727"/>
<stop offset="0.701" stop-color="#EE4B28"/>
<stop offset="0.784" stop-color="#F56E29"/>
<stop offset="0.862" stop-color="#FA882A"/>
<stop offset="0.933" stop-color="#FD972A"/>
<stop offset="0.989" stop-color="#FE9D2B"/>
</linearGradient>
<linearGradient id="paint2_linear_1_645" x1="4.095" y1="-3.3" x2="39.935" y2="31.425" gradientUnits="userSpaceOnUse">
<stop offset="0.145" stop-color="#76187E"/>
<stop offset="0.243" stop-color="#871A70"/>
<stop offset="0.437" stop-color="#B5204D"/>
<stop offset="0.629" stop-color="#E82727"/>
<stop offset="0.701" stop-color="#EE4B28"/>
<stop offset="0.784" stop-color="#F56E29"/>
<stop offset="0.862" stop-color="#FA882A"/>
<stop offset="0.933" stop-color="#FD972A"/>
<stop offset="0.989" stop-color="#FE9D2B"/>
</linearGradient>
</defs>
</svg>
