<svg width="167" height="65" viewBox="0 0 167 65" fill="none" xmlns="http://www.w3.org/2000/svg">
<g clip-path="url(#clip0_1_840)">
<path d="M129.679 60.816L128.016 54.7353H128.764L130.035 59.6878H130.094L131.389 54.7353H132.22L133.515 59.6878H133.574L134.845 54.7353H135.593L133.93 60.816H133.17L131.828 55.9705H131.781L130.439 60.816H129.679ZM136.511 60.816V54.7353H140.18V55.3885H137.247V57.4431H139.99V58.0963H137.247V60.1628H140.228V60.816H136.511ZM141.508 60.816V54.7353H143.634C144.057 54.7353 144.406 54.8086 144.682 54.955C144.957 55.0995 145.162 55.2945 145.296 55.5399C145.431 55.7834 145.498 56.0536 145.498 56.3505C145.498 56.6118 145.452 56.8275 145.359 56.9978C145.268 57.168 145.147 57.3026 144.996 57.4016C144.848 57.5005 144.687 57.5738 144.512 57.6213V57.6807C144.698 57.6925 144.886 57.7579 145.074 57.8766C145.262 57.9954 145.419 58.1656 145.546 58.3873C145.672 58.609 145.736 58.8802 145.736 59.2008C145.736 59.5057 145.666 59.7798 145.528 60.0233C145.389 60.2668 145.171 60.4597 144.872 60.6023C144.573 60.7448 144.184 60.816 143.705 60.816H141.508ZM142.244 60.1628H143.705C144.186 60.1628 144.527 60.0698 144.729 59.8837C144.933 59.6957 145.035 59.4681 145.035 59.2008C145.035 58.995 144.982 58.805 144.878 58.6308C144.773 58.4546 144.623 58.3141 144.429 58.2092C144.235 58.1023 144.006 58.0488 143.74 58.0488H142.244V60.1628ZM142.244 57.4075H143.61C143.831 57.4075 144.031 57.364 144.21 57.2769C144.39 57.1898 144.532 57.067 144.637 56.9087C144.744 56.7503 144.797 56.5643 144.797 56.3505C144.797 56.0833 144.704 55.8566 144.518 55.6706C144.332 55.4825 144.037 55.3885 143.634 55.3885H142.244V57.4075ZM151.767 54.7353V60.816H151.055L147.741 56.0417H147.682V60.816H146.946V54.7353H147.658L150.984 59.5215H151.043V54.7353H151.767ZM153.49 60.816H152.718L154.951 54.7353H155.711L157.944 60.816H157.172L155.355 55.6973H155.307L153.49 60.816ZM153.775 58.4408H156.887V59.094H153.775V58.4408ZM158.891 60.816V54.7353H160.946C161.421 54.7353 161.811 54.8165 162.115 54.9788C162.42 55.1391 162.646 55.3598 162.792 55.6409C162.939 55.922 163.012 56.2416 163.012 56.5999C163.012 56.9582 162.939 57.2759 162.792 57.553C162.646 57.8301 162.421 58.0478 162.118 58.2062C161.816 58.3626 161.429 58.4408 160.958 58.4408H159.295V57.7757H160.934C161.258 57.7757 161.52 57.7282 161.718 57.6332C161.918 57.5381 162.062 57.4035 162.151 57.2294C162.242 57.0532 162.288 56.8434 162.288 56.5999C162.288 56.3564 162.242 56.1437 162.151 55.9616C162.06 55.7794 161.915 55.6389 161.715 55.5399C161.515 55.439 161.25 55.3885 160.922 55.3885H159.627V60.816H158.891ZM161.753 58.0845L163.25 60.816H162.395L160.922 58.0845H161.753Z" fill="#1A1818"/>
<path d="M133.525 27.69C132.027 27.6605 130.539 27.9314 129.148 28.4866C127.756 29.0419 126.491 29.8703 125.425 30.923C124.309 32.1239 123.442 33.5336 122.872 35.0709C122.303 36.6082 122.043 38.2429 122.108 39.881C122.108 46.845 126.655 51.709 133.165 51.709C136.045 51.7488 138.835 50.7048 140.982 48.784C143.222 46.3937 144.516 43.2706 144.624 39.9966C144.731 36.7226 143.645 33.5212 141.567 30.989C140.533 29.9059 139.282 29.0525 137.897 28.4841C136.511 27.9158 135.022 27.6452 133.525 27.69ZM133.344 47.645C129.791 47.645 127.212 44.323 127.212 39.745C127.212 35.767 129.136 31.753 133.434 31.753C138.213 31.753 139.476 36.922 139.476 39.653C139.476 44.285 136.897 47.645 133.344 47.645ZM74.7419 27.69C72.2183 27.6645 69.7325 28.3036 67.534 29.543L67.201 29.743L67.2889 30.122C67.5348 31.1677 67.9874 32.1537 68.62 33.022L68.889 33.39L69.295 33.184C70.746 32.3927 72.3703 31.9729 74.0229 31.962C78.2749 31.962 78.606 34.547 78.606 35.34V36.167C74.506 36.205 71.2809 36.941 69.0259 38.355C67.8986 39.0205 66.9691 39.9745 66.3332 41.1188C65.6972 42.2631 65.3778 43.5562 65.408 44.865C65.408 48.058 67.639 51.41 72.624 51.703L73.8379 51.741C75.0067 51.7404 76.1717 51.6062 77.31 51.341L78.5099 51.114C79.1716 51.0114 79.8404 50.9613 80.5099 50.964C81.3398 50.961 82.1683 51.0306 82.986 51.172L83.625 51.299V37.199C83.7429 34.9139 83.1261 32.6512 81.865 30.742C80.369 28.719 77.9729 27.69 74.7419 27.69ZM78.766 46.955C77.9285 47.0263 77.0966 47.1533 76.2759 47.335C75.3458 47.5534 74.3952 47.6728 73.4399 47.691C73.0035 47.7238 72.5652 47.6612 72.1555 47.5076C71.7457 47.3539 71.3743 47.1129 71.067 46.8013C70.7598 46.4896 70.524 46.1148 70.3762 45.7029C70.2284 45.291 70.172 44.8519 70.211 44.416C70.211 40.678 76.701 40.387 78.691 40.387H78.702L78.766 46.955ZM162.883 29.679C161.277 28.429 159.333 27.6895 157.303 27.556L156.495 27.525C155.266 27.5385 154.045 27.734 152.873 28.105C151.772 28.4223 150.632 28.5806 149.487 28.575C148.673 28.5821 147.861 28.5023 147.064 28.337L146.402 28.176V50.676L146.756 50.804C147.482 51.0324 148.24 51.1441 149.002 51.135C149.699 51.1353 150.393 51.0449 151.067 50.866L151.467 50.759L151.455 33.184C152.096 33.0904 152.728 32.9456 153.345 32.751C154.156 32.4783 155.007 32.3431 155.862 32.351H156.169C158.01 32.398 161.1 33.201 161.1 38.059V50.76L161.489 50.87C162.153 51.0508 162.838 51.1406 163.526 51.137C164.288 51.1375 165.046 51.0291 165.777 50.815L166.161 50.702V37.613C166.157 34.123 165.056 31.453 162.883 29.679ZM98.34 27.833H92.98V20.69L88.009 23.89V27.832H84.943L84.8509 28.252C84.6209 29.4066 84.6135 30.5946 84.829 31.752L84.915 32.182H88.009V43.739C88.009 46.683 88.544 48.614 89.692 49.815C90.2948 50.4453 91.0272 50.9372 91.8386 51.257C92.6501 51.5767 93.5212 51.7166 94.392 51.667C95.5684 51.6917 96.7412 51.5279 97.866 51.182L98.209 51.063L98.225 50.701C98.2712 49.6188 98.0991 48.5383 97.719 47.524L97.561 47.105L97.12 47.187C96.5639 47.2861 95.9999 47.3343 95.435 47.331C93.274 47.331 92.977 45.539 92.977 43.603V32.179H98.3769L98.462 31.748C98.671 30.5912 98.6587 29.4052 98.426 28.253L98.34 27.833ZM117.141 29.679C115.535 28.429 113.591 27.6895 111.561 27.556L110.661 27.522C108.937 27.4999 107.236 27.9151 105.717 28.729V20.045L105.328 19.935C104.664 19.7547 103.979 19.6649 103.291 19.668C102.529 19.6675 101.771 19.7759 101.04 19.99L100.656 20.104V50.737L101.038 50.851C101.721 51.0432 102.428 51.1388 103.138 51.135C103.88 51.1361 104.618 51.0334 105.331 50.83L105.719 50.719V37.803C105.719 36.166 106.179 32.359 110.435 32.359C114.873 32.359 115.352 36.351 115.352 38.067V50.76L115.742 50.87C116.406 51.0508 117.091 51.1406 117.779 51.137C118.541 51.1375 119.299 51.0291 120.03 50.815L120.414 50.702V37.613C120.419 34.123 119.313 31.453 117.141 29.679Z" fill="#1A1818"/>
<path d="M62.306 13.724C61.6022 11.257 60.31 8.99773 58.5405 7.14024C56.771 5.28276 54.577 3.8826 52.147 3.06001C46.635 1.32001 42.528 2.09701 37.569 3.31201C30.296 -0.987995 16.757 -3.58799 6.64605 11.812C6.40525 11.7815 6.16276 11.7661 5.92004 11.766C4.66332 11.7656 3.43909 12.1652 2.42468 12.907C1.41026 13.6489 0.658351 14.6944 0.277825 15.8921C-0.1027 17.0898 -0.0920913 18.3776 0.30816 19.5688C0.708411 20.7601 1.4775 21.793 2.50402 22.518C1.77596 25.9704 1.53799 29.5082 1.79705 33.027C2.57105 47.643 13.345 61.627 28.339 61.141C38.733 60.805 49.563 54.508 56.139 43.341C58.754 38.902 65.439 25.854 62.306 13.724ZM6.17901 23.597C7.36083 23.5457 8.50016 23.1413 9.44988 22.4361C10.3996 21.7309 11.1162 20.7571 11.507 19.6406C11.8979 18.5241 11.9451 17.3161 11.6426 16.1725C11.3401 15.0289 10.7018 14.0022 9.81005 13.225C9.82105 13.202 9.83003 13.181 9.84203 13.158C19.542 -2.70799 33.268 4.84401 33.268 4.84401C24.8696 8.51101 17.5918 14.336 12.174 21.727C9.678 25.115 6.38501 24.289 6.17901 23.597ZM15.415 28.597C23.556 14.605 33.001 9.79701 37.454 7.49701C37.454 7.49701 42.279 10.597 45.661 19.649C46.7202 22.272 47.0925 25.122 46.7425 27.929C46.3925 30.7361 45.3319 33.4074 43.661 35.69C40.1766 40.6235 35.2516 44.3586 29.561 46.383C20.93 49.433 14.985 48.221 12.512 46.299C12.519 46.298 8.556 40.386 15.419 28.595L15.415 28.597ZM49.559 41.82C49.306 44.387 45.696 52.605 34.931 56.52C28.631 58.812 18.453 57.42 13.943 50.809C13.943 50.809 26.154 56.994 43.773 43.081C45.026 42.03 46.588 40.956 47.423 40.389C48.258 39.822 49.761 39.76 49.559 41.82ZM58.119 17.385C57.7248 18.0426 57.1694 18.5888 56.5054 18.972C55.8413 19.3553 55.0906 19.5629 54.324 19.5753C53.5574 19.5877 52.8003 19.4045 52.1242 19.0429C51.4481 18.6814 50.8753 18.1535 50.46 17.509C43.994 8.214 41.1121 5.97301 41.1121 5.97301C47.0291 3.81801 52.129 4.23301 55.631 7.26401C58.419 9.67701 59.439 15.06 58.119 17.385Z" fill="url(#paint0_linear_1_840)"/>
<path d="M51.467 15.724C51.467 16.3146 51.6422 16.8919 51.9703 17.383C52.2984 17.874 52.7647 18.2567 53.3104 18.4827C53.856 18.7087 54.4564 18.7679 55.0356 18.6527C55.6148 18.5374 56.1469 18.2531 56.5645 17.8355C56.9821 17.4179 57.2664 16.8858 57.3817 16.3066C57.4969 15.7274 57.4377 15.127 57.2117 14.5813C56.9857 14.0357 56.603 13.5694 56.1119 13.2413C55.6209 12.9132 55.0436 12.738 54.453 12.738C53.6611 12.7383 52.9018 13.053 52.3419 13.6129C51.782 14.1728 51.4673 14.9322 51.467 15.724Z" fill="url(#paint1_linear_1_840)"/>
<path d="M35.5841 27.5C36.3555 27.5 37.1094 27.2713 37.7508 26.8427C38.3921 26.4142 38.892 25.8051 39.1872 25.0925C39.4824 24.3798 39.5597 23.5957 39.4092 22.8392C39.2587 22.0826 38.8872 21.3877 38.3418 20.8423C37.7964 20.2969 37.1015 19.9254 36.345 19.775C35.5884 19.6245 34.8042 19.7017 34.0916 19.9969C33.379 20.2921 32.7699 20.7919 32.3414 21.4333C31.9128 22.0746 31.6841 22.8287 31.6841 23.6C31.6841 24.6344 32.095 25.6263 32.8264 26.3577C33.5577 27.0891 34.5498 27.5 35.5841 27.5Z" fill="url(#paint2_linear_1_840)"/>
</g>
<defs>
<linearGradient id="paint0_linear_1_840" x1="1.45187" y1="-1.64982" x2="55.5461" y2="54.1264" gradientUnits="userSpaceOnUse">
<stop offset="0.145" stop-color="#76187E"/>
<stop offset="0.243" stop-color="#871A70"/>
<stop offset="0.437" stop-color="#B5204D"/>
<stop offset="0.629" stop-color="#E82727"/>
<stop offset="0.701" stop-color="#EE4B28"/>
<stop offset="0.784" stop-color="#F56E29"/>
<stop offset="0.862" stop-color="#FA882A"/>
<stop offset="0.933" stop-color="#FD972A"/>
<stop offset="0.989" stop-color="#FE9D2B"/>
</linearGradient>
<linearGradient id="paint1_linear_1_840" x1="18.4181" y1="-19.1823" x2="74.2682" y2="34.9179" gradientUnits="userSpaceOnUse">
<stop offset="0.145" stop-color="#76187E"/>
<stop offset="0.243" stop-color="#871A70"/>
<stop offset="0.437" stop-color="#B5204D"/>
<stop offset="0.629" stop-color="#E82727"/>
<stop offset="0.701" stop-color="#EE4B28"/>
<stop offset="0.784" stop-color="#F56E29"/>
<stop offset="0.862" stop-color="#FA882A"/>
<stop offset="0.933" stop-color="#FD972A"/>
<stop offset="0.989" stop-color="#FE9D2B"/>
</linearGradient>
<linearGradient id="paint2_linear_1_840" x1="5.3122" y1="-5.72797" x2="61.2226" y2="48.4432" gradientUnits="userSpaceOnUse">
<stop offset="0.145" stop-color="#76187E"/>
<stop offset="0.243" stop-color="#871A70"/>
<stop offset="0.437" stop-color="#B5204D"/>
<stop offset="0.629" stop-color="#E82727"/>
<stop offset="0.701" stop-color="#EE4B28"/>
<stop offset="0.784" stop-color="#F56E29"/>
<stop offset="0.862" stop-color="#FA882A"/>
<stop offset="0.933" stop-color="#FD972A"/>
<stop offset="0.989" stop-color="#FE9D2B"/>
</linearGradient>
<clipPath id="clip0_1_840">
<rect width="166.158" height="64.177" fill="white"/>
</clipPath>
</defs>
</svg>
